<svg width="25" height="25" viewBox="0 0 25 25" fill="none" xmlns="http://www.w3.org/2000/svg">
<path d="M11.3092 4.22882H4.3092C3.77877 4.22882 3.27006 4.43953 2.89499 4.81461C2.51992 5.18968 2.3092 5.69839 2.3092 6.22882V20.2288C2.3092 20.7593 2.51992 21.268 2.89499 21.643C3.27006 22.0181 3.77877 22.2288 4.3092 22.2288H18.3092C18.8396 22.2288 19.3483 22.0181 19.7234 21.643C20.0985 21.268 20.3092 20.7593 20.3092 20.2288V13.2288" stroke="black" stroke-width="2" stroke-linecap="round" stroke-linejoin="round"/>
<path d="M18.8092 2.72883C19.207 2.33101 19.7466 2.10751 20.3092 2.10751C20.8718 2.10751 21.4114 2.33101 21.8092 2.72883C22.207 3.12666 22.4305 3.66622 22.4305 4.22883C22.4305 4.79144 22.207 5.33101 21.8092 5.72883L12.3092 15.2288L8.3092 16.2288L9.3092 12.2288L18.8092 2.72883Z" stroke="black" stroke-width="2" stroke-linecap="round" stroke-linejoin="round"/>
</svg>
