<svg width="80" height="80" viewBox="0 0 80 80" fill="none" xmlns="http://www.w3.org/2000/svg">
<circle cx="40" cy="40" r="40" fill="#F3E2B5"/>
<path d="M56 58.2V54.0667C56 51.8742 55.129 49.7716 53.5787 48.2213C52.0284 46.671 49.9258 45.8 47.7333 45.8H33.2667C31.0742 45.8 28.9716 46.671 27.4213 48.2213C25.8709 49.7716 25 51.8742 25 54.0667V58.2" stroke="#6A532E" stroke-width="4" stroke-linecap="round" stroke-linejoin="round"/>
<path d="M40.5 37.5333C45.0656 37.5333 48.7667 33.8322 48.7667 29.2667C48.7667 24.7011 45.0656 21 40.5 21C35.9344 21 32.2333 24.7011 32.2333 29.2667C32.2333 33.8322 35.9344 37.5333 40.5 37.5333Z" stroke="#6A532E" stroke-width="4" stroke-linecap="round" stroke-linejoin="round"/>
</svg>
